<?xml version="1.0" encoding="UTF-8"?>
<!DOCTYPE svg PUBLIC "-//W3C//DTD SVG 1.1//EN" "http://www.w3.org/Graphics/SVG/1.1/DTD/svg11.dtd">
<!-- Creator: CorelDRAW 2020 (64-Bit) -->
<svg xmlns="http://www.w3.org/2000/svg" xml:space="preserve" width="600px" height="200px" version="1.1" style="shape-rendering:geometricPrecision; text-rendering:geometricPrecision; image-rendering:optimizeQuality; fill-rule:evenodd; clip-rule:evenodd"
viewBox="0 0 600 200"
 xmlns:xlink="http://www.w3.org/1999/xlink"
 xmlns:xodm="http://www.corel.com/coreldraw/odm/2003">
 <defs>
  <style type="text/css">
   <![CDATA[
    .fil4 {fill:#FEFEFE}
    .fil2 {fill:#E63D24}
    .fil0 {fill:white}
    .fil1 {fill:white;fill-rule:nonzero}
    .fil3 {fill:#1F1B20;fill-opacity:0.250980}
    .fil8 {fill:#FEFEFE;fill-opacity:0.301961}
    .fil6 {fill:#FEFEFE;fill-opacity:0.600000}
    .fil5 {fill:#FEFEFE;fill-opacity:0.800000}
    .fil7 {fill:#FEFEFE;fill-opacity:0.901961}
   ]]>
  </style>
 </defs>
 <g id="Слой_x0020_1">
  <metadata id="CorelCorpID_0Corel-Layer"/>
  <g id="_1888787897200">
   <path class="fil0" d="M322.89 154.48c-15.73,0 -27.8,-3.74 -36.2,-11.25 -8.37,-7.51 -12.57,-18.22 -12.57,-32.1 0,-13.58 3.92,-24.41 11.74,-32.53 7.82,-8.1 18.77,-12.14 32.81,-12.14 12.77,0 22.39,3.44 28.81,10.32 6.45,6.85 9.66,16.69 9.66,29.52l0 9.33 -57.06 0c0.25,3.87 1.06,7.08 2.45,9.69 1.39,2.6 3.21,4.65 5.51,6.2 2.23,1.51 4.84,2.63 7.8,3.29 2.98,0.68 6.22,1.01 9.73,1.01 3.04,0 6,-0.33 8.93,-1.01 2.94,-0.69 5.62,-1.57 8.05,-2.69 2.12,-0.96 4.09,-1.97 5.89,-3.08 1.82,-1.12 3.29,-2.08 4.43,-2.94l2.75 0 0 21.48c-2.12,0.83 -4.07,1.62 -5.81,2.33 -1.77,0.73 -4.18,1.46 -7.24,2.2 -2.83,0.73 -5.74,1.31 -8.73,1.74 -3,0.43 -6.65,0.63 -10.95,0.63zm-4.22 -133.47l101.43 0 0 51.39c-3.72,-1.92 -6.98,-3.36 -9.79,-4.27 -2.78,-0.91 -6.37,-1.37 -10.72,-1.37 -4.83,0 -9.39,1.04 -13.69,3.14 -4.32,2.1 -7.99,4.96 -11.03,8.55 -3.31,3.94 -5.92,8.6 -7.79,13.93 -1.89,5.32 -2.83,11.62 -2.83,18.88 0,13.12 2.78,23.6 8.32,31.46 5.57,7.84 13.1,11.76 22.62,11.76 2.83,0 5.26,-0.25 7.28,-0.73 2.05,-0.48 4.1,-1.21 6.17,-2.2 1.65,-0.81 3.54,-1.97 5.69,-3.57 2.15,-1.56 4.08,-3.06 5.77,-4.45l0 8.68 25.95 0 0 -131.2 106.94 0c12.61,0 22.93,10.32 22.93,22.93l0 115.4c0,12.61 -10.32,22.93 -22.93,22.93l-288.71 0c-12.6,0 -22.93,-10.32 -22.93,-22.93l0 -47.2 42.08 -71.8c6.01,-10.25 21.63,-19.33 35.24,-19.33zm12.97 78.99c-0.15,-5.54 -1.44,-9.76 -3.84,-12.65 -2.43,-2.91 -6.12,-4.35 -11.1,-4.35 -5.11,0 -9.09,1.52 -11.94,4.58 -2.86,3.03 -4.46,7.18 -4.76,12.42l31.64 0zm88.46 29.32l0 -41.06c-1.29,-0.63 -2.98,-1.16 -5.06,-1.59 -2.1,-0.43 -3.89,-0.63 -5.36,-0.63 -6.27,0 -10.98,2.17 -14.14,6.55 -3.16,4.37 -4.73,10.47 -4.73,18.31 0,8.25 1.26,14.22 3.77,17.89 2.5,3.66 6.58,5.51 12.19,5.51 2.28,0 4.58,-0.46 6.93,-1.34 2.33,-0.89 4.45,-2.1 6.4,-3.64zm123.14 22.89l-25.95 0 0 -9.21c-4.51,3.77 -8.63,6.6 -12.4,8.55 -3.74,1.95 -8.22,2.93 -13.4,2.93 -8.28,0 -14.7,-2.6 -19.33,-7.81 -4.63,-5.21 -6.93,-13.05 -6.93,-23.5l0 -54.13 25.95 0 0 41.23c0,4.3 0.1,7.82 0.33,10.52 0.23,2.71 0.76,5.01 1.62,6.88 0.78,1.72 2.02,3.04 3.69,3.92 1.65,0.89 3.97,1.34 6.96,1.34 1.84,0 4.02,-0.45 6.52,-1.34 2.53,-0.88 4.86,-2.1 6.99,-3.61l0 -58.94 25.95 0 0 83.17z"/>
   <path class="fil1" d="M142.9 154.48l-27.63 0 0 -73.15 -20.08 47.2 -18.87 0 -20.08 -47.2 0 73.15 -26.11 0 0 -110.33 31.95 0 24.46 54.46 24.36 -54.46 32 0 0 110.33zm114.59 -110.33l-38.1 64.25 0 46.08 -27.77 0 0 -44.67 -38.71 -65.66 31.55 0 21.7 39.61 20.97 -39.61 30.36 0z"/>
  </g>
  <g id="_1888787898688">
   <path class="fil2" d="M25.99 63c10.81,-7.72 23.83,-13.5 38.54,-15.88 -20.05,-32.68 -56.64,-12.89 -55.47,16.66 5.4,-5.97 10.63,-11.41 16.65,-14.45 -1.56,3.39 -1.15,10.03 0.28,13.67z"/>
   <path class="fil3" d="M25.67 49.42c-1.4,3.15 -1.15,9.01 0.02,12.73l4.36 -2.62c0.08,-4.89 0.06,-9.68 1.79,-13.67 -2.25,0.86 -4.32,2.14 -6.17,3.56z"/>
   <path class="fil4" d="M28.44 58.78c3.32,-2.18 25.84,-11.7 31.88,-13.13 6.07,-1.43 8.76,1.33 9.92,4.55 1.82,5.02 0.05,8.76 -3.12,10.57 -4.93,2.81 -30.31,10.97 -34.77,11.84 -3.98,0.76 -7.82,-1.97 -8.57,-6.18 -0.78,-4.41 2.03,-5.91 4.66,-7.65z"/>
   <circle class="fil4" cx="10.54" cy="61.61" r="6.31"/>
   <path class="fil3" d="M16.29 64.24c-1,2.17 -3.2,3.69 -5.75,3.69 -3.48,0 -6.31,-2.83 -6.31,-6.32 0,-2.09 1.02,-3.95 2.59,-5.1 -0.37,0.8 -0.57,1.69 -0.57,2.63 0,3.49 2.82,6.31 6.31,6.31 1.4,0 2.68,-0.45 3.73,-1.21z"/>
   <path class="fil3" d="M70.96 54.62c-0.18,2.8 -1.69,4.92 -3.84,6.15 -4.93,2.81 -30.31,10.97 -34.77,11.84 -3.98,0.76 -7.82,-1.97 -8.57,-6.18 -0.37,-2.09 0.07,-3.53 0.92,-4.65 0.01,0.38 0.05,0.78 0.13,1.2 0.74,4.21 4.58,6.94 8.56,6.18 4.46,-0.87 29.85,-9.03 34.77,-11.84 1.15,-0.66 2.12,-1.57 2.8,-2.7z"/>
   <path class="fil5" d="M39.75 32.79l0.14 -0.54c0.07,-0.26 0.33,-0.37 0.59,-0.34 2.59,0.23 4.16,0.71 6.45,1.71 0.24,0.1 0.41,0.33 0.34,0.59l-0.14 0.54c-0.07,0.26 -0.35,0.45 -0.59,0.34 -1.97,-0.89 -4.24,-1.59 -6.45,-1.71 -0.26,-0.01 -0.41,-0.33 -0.34,-0.59z"/>
   <path class="fil5" d="M49.03 35.5l0.27 -0.44c0.14,-0.21 0.4,-0.24 0.63,-0.15 2.24,0.9 3.52,1.76 5.29,3.27 0.19,0.16 0.28,0.41 0.15,0.62l-0.27 0.44c-0.13,0.22 -0.44,0.32 -0.62,0.15 -1.52,-1.33 -3.36,-2.56 -5.3,-3.27 -0.24,-0.08 -0.28,-0.41 -0.15,-0.62z"/>
  </g>
  <g id="_1888787023808">
   <path class="fil6" d="M335.08 49c2.67,0 4.83,2.16 4.83,4.83 0,2.67 -2.16,4.84 -4.83,4.84 -2.67,0 -4.83,-2.17 -4.83,-4.84 0,-2.67 2.16,-4.83 4.83,-4.83z"/>
   <path class="fil7" d="M347.06 33.69c1.63,0 2.96,1.32 2.96,2.95 0,1.64 -1.33,2.96 -2.96,2.96 -1.64,0 -2.96,-1.32 -2.96,-2.96 0,-1.63 1.32,-2.95 2.96,-2.95z"/>
   <path class="fil8" d="M393.4 18.67c3.89,0 7.04,3.15 7.04,7.03 0,3.89 -3.15,7.04 -7.04,7.04 -3.88,0 -7.03,-3.15 -7.03,-7.04 0,-3.88 3.15,-7.03 7.03,-7.03z"/>
   <path class="fil7" d="M311.11 48.79c1.64,0 2.96,1.32 2.96,2.96 0,1.63 -1.32,2.95 -2.96,2.95 -1.63,0 -2.96,-1.32 -2.96,-2.95 0,-1.64 1.33,-2.96 2.96,-2.96z"/>
   <path class="fil7" d="M329.34 124.31c1.63,0 2.96,1.32 2.96,2.96 0,1.63 -1.33,2.95 -2.96,2.95 -1.63,0 -2.96,-1.32 -2.96,-2.95 0,-1.64 1.33,-2.96 2.96,-2.96z"/>
   <path class="fil7" d="M449.93 143.83c1.63,0 2.96,1.32 2.96,2.96 0,1.63 -1.33,2.96 -2.96,2.96 -1.63,0 -2.96,-1.33 -2.96,-2.96 0,-1.64 1.33,-2.96 2.96,-2.96z"/>
   <path class="fil7" d="M494.45 30.56c1.63,0 2.95,1.32 2.95,2.96 0,1.63 -1.32,2.95 -2.95,2.95 -1.64,0 -2.96,-1.32 -2.96,-2.95 0,-1.64 1.32,-2.96 2.96,-2.96z"/>
   <path class="fil7" d="M481.16 75.43c1.64,0 2.96,1.33 2.96,2.96 0,1.64 -1.32,2.96 -2.96,2.96 -1.63,0 -2.96,-1.32 -2.96,-2.96 0,-1.63 1.33,-2.96 2.96,-2.96z"/>
   <path class="fil7" d="M436.74 94.08c1.64,0 2.96,1.33 2.96,2.96 0,1.64 -1.32,2.96 -2.96,2.96 -1.63,0 -2.96,-1.32 -2.96,-2.96 0,-1.63 1.33,-2.96 2.96,-2.96z"/>
   <path class="fil7" d="M270.49 167.54c1.63,0 2.95,1.32 2.95,2.96 0,1.63 -1.32,2.95 -2.95,2.95 -1.64,0 -2.96,-1.32 -2.96,-2.95 0,-1.64 1.32,-2.96 2.96,-2.96z"/>
   <path class="fil7" d="M351.22 163.37c1.63,0 2.95,1.33 2.95,2.96 0,1.63 -1.32,2.96 -2.95,2.96 -1.64,0 -2.96,-1.33 -2.96,-2.96 0,-1.63 1.32,-2.96 2.96,-2.96z"/>
   <path class="fil7" d="M458.15 42.02c1.64,0 2.96,1.32 2.96,2.96 0,1.63 -1.32,2.95 -2.96,2.95 -1.63,0 -2.95,-1.32 -2.95,-2.95 0,-1.64 1.32,-2.96 2.95,-2.96z"/>
   <path class="fil7" d="M556.43 151.39c1.63,0 2.95,1.33 2.95,2.96 0,1.63 -1.32,2.96 -2.95,2.96 -1.64,0 -2.96,-1.33 -2.96,-2.96 0,-1.63 1.32,-2.96 2.96,-2.96z"/>
   <path class="fil7" d="M534.2 49.83c1.63,0 2.95,1.32 2.95,2.96 0,1.63 -1.32,2.95 -2.95,2.95 -1.64,0 -2.96,-1.32 -2.96,-2.95 0,-1.64 1.32,-2.96 2.96,-2.96z"/>
   <path class="fil7" d="M568.57 72.75c1.64,0 2.96,1.32 2.96,2.95 0,1.64 -1.32,2.96 -2.96,2.96 -1.63,0 -2.96,-1.32 -2.96,-2.96 0,-1.63 1.33,-2.95 2.96,-2.95z"/>
   <path class="fil7" d="M244.61 121.18c1.64,0 2.96,1.33 2.96,2.96 0,1.64 -1.32,2.96 -2.96,2.96 -1.63,0 -2.96,-1.32 -2.96,-2.96 0,-1.63 1.33,-2.96 2.96,-2.96z"/>
   <path class="fil6" d="M272.05 76.08c2.67,0 4.83,2.16 4.83,4.83 0,2.67 -2.16,4.84 -4.83,4.84 -2.67,0 -4.84,-2.17 -4.84,-4.84 0,-2.67 2.17,-4.83 4.84,-4.83z"/>
   <path class="fil6" d="M269.97 141.18c2.67,0 4.83,2.17 4.83,4.84 0,2.67 -2.16,4.83 -4.83,4.83 -2.67,0 -4.84,-2.16 -4.84,-4.83 0,-2.67 2.17,-4.84 4.84,-4.84z"/>
   <path class="fil6" d="M295.17 164.1c2.67,0 4.83,2.16 4.83,4.83 0,2.67 -2.16,4.84 -4.83,4.84 -2.67,0 -4.84,-2.17 -4.84,-4.84 0,-2.67 2.17,-4.83 4.84,-4.83z"/>
   <path class="fil6" d="M428.95 113.31c2.67,0 4.83,2.16 4.83,4.83 0,2.67 -2.16,4.84 -4.83,4.84 -2.67,0 -4.84,-2.17 -4.84,-4.84 0,-2.67 2.17,-4.83 4.84,-4.83z"/>
   <path class="fil6" d="M392.76 145.57c2.67,0 4.83,2.16 4.83,4.83 0,2.67 -2.16,4.84 -4.83,4.84 -2.67,0 -4.84,-2.17 -4.84,-4.84 0,-2.67 2.17,-4.83 4.84,-4.83z"/>
   <path class="fil6" d="M18.16 48.72c2.67,0 4.83,2.17 4.83,4.84 0,2.67 -2.16,4.83 -4.83,4.83 -2.67,0 -4.84,-2.16 -4.84,-4.83 0,-2.67 2.17,-4.84 4.84,-4.84z"/>
   <path class="fil6" d="M504.86 159.93c2.67,0 4.84,2.17 4.84,4.84 0,2.67 -2.17,4.83 -4.84,4.83 -2.67,0 -4.83,-2.16 -4.83,-4.83 0,-2.67 2.16,-4.84 4.83,-4.84z"/>
   <path class="fil6" d="M559.55 112.02c2.67,0 4.84,2.16 4.84,4.83 0,2.67 -2.17,4.83 -4.84,4.83 -2.67,0 -4.83,-2.16 -4.83,-4.83 0,-2.67 2.16,-4.83 4.83,-4.83z"/>
   <path class="fil6" d="M550.18 32.33c2.67,0 4.83,2.16 4.83,4.83 0,2.67 -2.16,4.84 -4.83,4.84 -2.68,0 -4.84,-2.17 -4.84,-4.84 0,-2.67 2.16,-4.83 4.84,-4.83z"/>
   <path class="fil8" d="M425.7 171.28c3.88,0 7.03,3.15 7.03,7.03 0,3.88 -3.15,7.03 -7.03,7.03 -3.89,0 -7.04,-3.15 -7.04,-7.03 0,-3.88 3.15,-7.03 7.04,-7.03z"/>
   <path class="fil8" d="M489.76 50.44c3.88,0 7.03,3.15 7.03,7.03 0,3.89 -3.15,7.04 -7.03,7.04 -3.89,0 -7.03,-3.15 -7.03,-7.04 0,-3.88 3.14,-7.03 7.03,-7.03z"/>
   <path class="fil8" d="M536.63 145.18c3.89,0 7.03,3.15 7.03,7.03 0,3.88 -3.14,7.03 -7.03,7.03 -3.88,0 -7.03,-3.15 -7.03,-7.03 0,-3.88 3.15,-7.03 7.03,-7.03z"/>
   <path class="fil6" d="M399.66 55.77c2.67,0 4.84,2.16 4.84,4.83 0,2.67 -2.17,4.84 -4.84,4.84 -2.67,0 -4.83,-2.17 -4.83,-4.84 0,-2.67 2.16,-4.83 4.83,-4.83z"/>
   <path class="fil7" d="M184.04 64.4c1.64,0 2.96,1.32 2.96,2.96 0,1.63 -1.32,2.96 -2.96,2.96 -1.63,0 -2.96,-1.33 -2.96,-2.96 0,-1.64 1.33,-2.96 2.96,-2.96z"/>
   <path class="fil7" d="M134.56 141.48c1.64,0 2.96,1.33 2.96,2.96 0,1.64 -1.32,2.96 -2.96,2.96 -1.63,0 -2.96,-1.32 -2.96,-2.96 0,-1.63 1.33,-2.96 2.96,-2.96z"/>
   <path class="fil7" d="M180.4 165.44c1.63,0 2.95,1.33 2.95,2.96 0,1.63 -1.32,2.96 -2.95,2.96 -1.64,0 -2.96,-1.33 -2.96,-2.96 0,-1.63 1.32,-2.96 2.96,-2.96z"/>
   <path class="fil7" d="M186.65 100c1.63,0 2.95,1.32 2.95,2.96 0,1.63 -1.32,2.96 -2.95,2.96 -1.64,0 -2.96,-1.33 -2.96,-2.96 0,-1.64 1.32,-2.96 2.96,-2.96z"/>
   <path class="fil7" d="M140.81 27.59c1.64,0 2.96,1.32 2.96,2.96 0,1.63 -1.32,2.95 -2.96,2.95 -1.63,0 -2.96,-1.32 -2.96,-2.95 0,-1.64 1.33,-2.96 2.96,-2.96z"/>
   <path class="fil7" d="M80.4 63c1.63,0 2.95,1.33 2.95,2.96 0,1.64 -1.32,2.96 -2.95,2.96 -1.64,0 -2.96,-1.32 -2.96,-2.96 0,-1.63 1.32,-2.96 2.96,-2.96z"/>
   <path class="fil7" d="M60.08 152.07c1.64,0 2.96,1.32 2.96,2.96 0,1.63 -1.32,2.95 -2.96,2.95 -1.63,0 -2.95,-1.32 -2.95,-2.95 0,-1.64 1.32,-2.96 2.95,-2.96z"/>
   <path class="fil7" d="M58.52 113.53c1.63,0 2.96,1.32 2.96,2.95 0,1.64 -1.33,2.96 -2.96,2.96 -1.63,0 -2.96,-1.32 -2.96,-2.96 0,-1.63 1.33,-2.95 2.96,-2.95z"/>
   <path class="fil7" d="M21.71 28.46c1.63,0 2.96,1.33 2.96,2.96 0,1.63 -1.33,2.96 -2.96,2.96 -1.64,0 -2.96,-1.33 -2.96,-2.96 0,-1.63 1.32,-2.96 2.96,-2.96z"/>
   <path class="fil7" d="M21.71 182.63c1.63,0 2.96,1.32 2.96,2.96 0,1.63 -1.33,2.96 -2.96,2.96 -1.64,0 -2.96,-1.33 -2.96,-2.96 0,-1.64 1.32,-2.96 2.96,-2.96z"/>
   <path class="fil7" d="M120.15 82.63c1.63,0 2.96,1.32 2.96,2.96 0,1.63 -1.33,2.95 -2.96,2.95 -1.64,0 -2.96,-1.32 -2.96,-2.95 0,-1.64 1.32,-2.96 2.96,-2.96z"/>
   <path class="fil7" d="M372.58 84.36c1.64,0 2.96,1.32 2.96,2.96 0,1.63 -1.32,2.96 -2.96,2.96 -1.63,0 -2.95,-1.33 -2.95,-2.96 0,-1.64 1.32,-2.96 2.95,-2.96z"/>
   <path class="fil7" d="M460.61 94.08c1.63,0 2.95,1.33 2.95,2.96 0,1.64 -1.32,2.96 -2.95,2.96 -1.64,0 -2.96,-1.32 -2.96,-2.96 0,-1.63 1.32,-2.96 2.96,-2.96z"/>
   <path class="fil7" d="M556.96 190.44c1.63,0 2.96,1.33 2.96,2.96 0,1.63 -1.33,2.96 -2.96,2.96 -1.63,0 -2.96,-1.33 -2.96,-2.96 0,-1.63 1.33,-2.96 2.96,-2.96z"/>
   <path class="fil6" d="M88.73 2.11c2.67,0 4.83,2.16 4.83,4.83 0,2.67 -2.16,4.84 -4.83,4.84 -2.67,0 -4.84,-2.17 -4.84,-4.84 0,-2.67 2.17,-4.83 4.84,-4.83z"/>
   <path class="fil6" d="M42.38 76.59c2.67,0 4.83,2.16 4.83,4.83 0,2.67 -2.16,4.83 -4.83,4.83 -2.67,0 -4.84,-2.16 -4.84,-4.83 0,-2.67 2.17,-4.83 4.84,-4.83z"/>
   <path class="fil6" d="M96.02 157.32c2.67,0 4.84,2.16 4.84,4.83 0,2.67 -2.17,4.83 -4.84,4.83 -2.67,0 -4.83,-2.16 -4.83,-4.83 0,-2.67 2.16,-4.83 4.83,-4.83z"/>
   <path class="fil6" d="M128.83 77.63c2.67,0 4.84,2.16 4.84,4.83 0,2.67 -2.17,4.84 -4.84,4.84 -2.67,0 -4.83,-2.17 -4.83,-4.84 0,-2.67 2.16,-4.83 4.83,-4.83z"/>
   <path class="fil6" d="M167.9 144.3c2.67,0 4.83,2.16 4.83,4.83 0,2.67 -2.16,4.83 -4.83,4.83 -2.67,0 -4.84,-2.16 -4.84,-4.83 0,-2.67 2.17,-4.83 4.84,-4.83z"/>
   <path class="fil6" d="M174.67 180.23c2.67,0 4.83,2.17 4.83,4.84 0,2.67 -2.16,4.83 -4.83,4.83 -2.67,0 -4.84,-2.16 -4.84,-4.83 0,-2.67 2.17,-4.84 4.84,-4.84z"/>
   <path class="fil6" d="M225.71 40.65c2.67,0 4.83,2.16 4.83,4.83 0,2.67 -2.16,4.84 -4.83,4.84 -2.67,0 -4.83,-2.17 -4.83,-4.84 0,-2.67 2.16,-4.83 4.83,-4.83z"/>
   <path class="fil6" d="M232.48 148.46c2.67,0 4.83,2.17 4.83,4.84 0,2.67 -2.16,4.83 -4.83,4.83 -2.67,0 -4.83,-2.16 -4.83,-4.83 0,-2.67 2.16,-4.84 4.83,-4.84z"/>
   <path class="fil6" d="M422.18 75.43c2.67,0 4.83,2.17 4.83,4.84 0,2.67 -2.16,4.83 -4.83,4.83 -2.67,0 -4.84,-2.16 -4.84,-4.83 0,-2.67 2.17,-4.84 4.84,-4.84z"/>
   <path class="fil6" d="M322.59 84.4c2.67,0 4.83,2.16 4.83,4.83 0,2.67 -2.16,4.84 -4.83,4.84 -2.68,0 -4.84,-2.17 -4.84,-4.84 0,-2.67 2.16,-4.83 4.84,-4.83z"/>
   <path class="fil7" d="M443.94 14.92c1.63,0 2.96,1.32 2.96,2.96 0,1.63 -1.33,2.96 -2.96,2.96 -1.63,0 -2.96,-1.33 -2.96,-2.96 0,-1.64 1.33,-2.96 2.96,-2.96z"/>
   <path class="fil7" d="M267.38 11.27c1.63,0 2.95,1.33 2.95,2.96 0,1.64 -1.32,2.96 -2.95,2.96 -1.64,0 -2.96,-1.32 -2.96,-2.96 0,-1.63 1.32,-2.96 2.96,-2.96z"/>
   <path class="fil7" d="M327.79 191.48c1.64,0 2.96,1.33 2.96,2.96 0,1.64 -1.32,2.96 -2.96,2.96 -1.63,0 -2.96,-1.32 -2.96,-2.96 0,-1.63 1.33,-2.96 2.96,-2.96z"/>
   <path class="fil8" d="M194.46 107.72c3.88,0 7.03,3.15 7.03,7.03 0,3.89 -3.15,7.04 -7.03,7.04 -3.88,0 -7.03,-3.15 -7.03,-7.04 0,-3.88 3.15,-7.03 7.03,-7.03z"/>
   <path class="fil8" d="M150.19 44.7c3.88,0 7.03,3.15 7.03,7.03 0,3.89 -3.15,7.03 -7.03,7.03 -3.89,0 -7.03,-3.14 -7.03,-7.03 0,-3.88 3.14,-7.03 7.03,-7.03z"/>
   <path class="fil8" d="M200.19 10.85c3.88,0 7.03,3.14 7.03,7.03 0,3.88 -3.15,7.03 -7.03,7.03 -3.88,0 -7.03,-3.15 -7.03,-7.03 0,-3.89 3.15,-7.03 7.03,-7.03z"/>
   <path class="fil8" d="M32.48 132.72c3.88,0 7.03,3.15 7.03,7.03 0,3.89 -3.15,7.04 -7.03,7.04 -3.88,0 -7.03,-3.15 -7.03,-7.04 0,-3.88 3.15,-7.03 7.03,-7.03z"/>
   <path class="fil7" d="M111.81 100c1.64,0 2.96,1.32 2.96,2.96 0,1.63 -1.32,2.96 -2.96,2.96 -1.63,0 -2.95,-1.33 -2.95,-2.96 0,-1.64 1.32,-2.96 2.95,-2.96z"/>
   <path class="fil8" d="M590.81 7.2c3.89,0 7.04,3.15 7.04,7.03 0,3.89 -3.15,7.03 -7.04,7.03 -3.88,0 -7.03,-3.14 -7.03,-7.03 0,-3.88 3.15,-7.03 7.03,-7.03z"/>
   <path class="fil8" d="M331.44 -7.03c3.88,0 7.03,3.15 7.03,7.03 0,3.88 -3.15,7.03 -7.03,7.03 -3.88,0 -7.03,-3.15 -7.03,-7.03 0,-3.88 3.15,-7.03 7.03,-7.03z"/>
   <path class="fil8" d="M600 162.93c3.88,0 7.03,3.15 7.03,7.03 0,3.89 -3.15,7.03 -7.03,7.03 -3.88,0 -7.03,-3.14 -7.03,-7.03 0,-3.88 3.15,-7.03 7.03,-7.03z"/>
   <path class="fil7" d="M589.25 118.4c1.64,0 2.96,1.32 2.96,2.96 0,1.63 -1.32,2.95 -2.96,2.95 -1.63,0 -2.96,-1.32 -2.96,-2.95 0,-1.64 1.33,-2.96 2.96,-2.96z"/>
   <path class="fil7" d="M302.96 100c1.63,0 2.96,1.32 2.96,2.96 0,1.63 -1.33,2.96 -2.96,2.96 -1.64,0 -2.96,-1.33 -2.96,-2.96 0,-1.64 1.32,-2.96 2.96,-2.96z"/>
   <path class="fil8" d="M292.97 114.76c3.88,0 7.03,3.14 7.03,7.03 0,3.88 -3.15,7.03 -7.03,7.03 -3.88,0 -7.03,-3.15 -7.03,-7.03 0,-3.89 3.15,-7.03 7.03,-7.03z"/>
   <path class="fil8" d="M346.14 75.43c3.88,0 7.03,3.15 7.03,7.04 0,3.88 -3.15,7.03 -7.03,7.03 -3.89,0 -7.03,-3.15 -7.03,-7.03 0,-3.89 3.14,-7.04 7.03,-7.04z"/>
   <path class="fil7" d="M526.14 94.08c1.63,0 2.96,1.33 2.96,2.96 0,1.64 -1.33,2.96 -2.96,2.96 -1.63,0 -2.96,-1.32 -2.96,-2.96 0,-1.63 1.33,-2.96 2.96,-2.96z"/>
   <path class="fil6" d="M341.22 138.83c2.67,0 4.84,2.16 4.84,4.83 0,2.67 -2.17,4.84 -4.84,4.84 -2.67,0 -4.83,-2.17 -4.83,-4.84 0,-2.67 2.16,-4.83 4.83,-4.83z"/>
   <path class="fil8" d="M485.24 129.6c3.88,0 7.03,3.15 7.03,7.03 0,3.89 -3.15,7.03 -7.03,7.03 -3.89,0 -7.04,-3.14 -7.04,-7.03 0,-3.88 3.15,-7.03 7.04,-7.03z"/>
   <path class="fil8" d="M150.45 111.63c3.88,0 7.03,3.15 7.03,7.03 0,3.89 -3.15,7.03 -7.03,7.03 -3.88,0 -7.03,-3.14 -7.03,-7.03 0,-3.88 3.15,-7.03 7.03,-7.03z"/>
   <path class="fil7" d="M509.82 3.2c1.64,0 2.96,1.33 2.96,2.96 0,1.64 -1.32,2.96 -2.96,2.96 -1.63,0 -2.95,-1.32 -2.95,-2.96 0,-1.63 1.32,-2.96 2.95,-2.96z"/>
   <path class="fil7" d="M461.55 180.29c1.64,0 2.96,1.32 2.96,2.96 0,1.63 -1.32,2.95 -2.96,2.95 -1.63,0 -2.96,-1.32 -2.96,-2.95 0,-1.64 1.33,-2.96 2.96,-2.96z"/>
   <path class="fil7" d="M308.82 130.57c1.64,0 2.96,1.33 2.96,2.96 0,1.64 -1.32,2.96 -2.96,2.96 -1.63,0 -2.95,-1.32 -2.95,-2.96 0,-1.63 1.32,-2.96 2.95,-2.96z"/>
  </g>
 </g>
</svg>
